<mxfile host="app.diagrams.net" modified="2024-01-14T12:06:34.829Z" agent="Mozilla/5.0 (Windows NT 10.0; Win64; x64) AppleWebKit/537.36 (KHTML, like Gecko) Chrome/120.0.0.0 Safari/537.36" etag="6joM7eyT-KU78gjvhozU" version="22.1.18" type="device">
  <diagram name="Page-1" id="LOawBF8Huj8KaT1qAEuG">
    <mxGraphModel dx="745" dy="845" grid="1" gridSize="10" guides="1" tooltips="1" connect="1" arrows="1" fold="1" page="1" pageScale="1" pageWidth="850" pageHeight="1100" math="1" shadow="0">
      <root>
        <mxCell id="0" />
        <mxCell id="1" parent="0" />
        <mxCell id="0Csx8JLGuW4_EeDwEvlU-20" value="" style="curved=1;endArrow=classic;html=1;rounded=0;strokeColor=#FF0000;strokeWidth=4;" edge="1" parent="1">
          <mxGeometry width="50" height="50" relative="1" as="geometry">
            <mxPoint x="1010" y="790" as="sourcePoint" />
            <mxPoint x="990" y="100" as="targetPoint" />
            <Array as="points">
              <mxPoint x="1110" y="550" />
              <mxPoint x="1130" y="470" />
              <mxPoint x="1110" y="400" />
            </Array>
          </mxGeometry>
        </mxCell>
        <mxCell id="0Csx8JLGuW4_EeDwEvlU-2" value="" style="ellipse;whiteSpace=wrap;html=1;aspect=fixed;fontStyle=1;fontSize=26;" vertex="1" parent="1">
          <mxGeometry x="1290" y="450" width="40" height="40" as="geometry" />
        </mxCell>
        <mxCell id="0Csx8JLGuW4_EeDwEvlU-3" value="" style="ellipse;whiteSpace=wrap;html=1;aspect=fixed;fontSize=26;fontStyle=1" vertex="1" parent="1">
          <mxGeometry x="970" y="450" width="40" height="40" as="geometry" />
        </mxCell>
        <mxCell id="0Csx8JLGuW4_EeDwEvlU-4" value="" style="endArrow=none;dashed=1;html=1;rounded=0;" edge="1" parent="1">
          <mxGeometry width="50" height="50" relative="1" as="geometry">
            <mxPoint x="860" y="470" as="sourcePoint" />
            <mxPoint x="1380" y="470" as="targetPoint" />
          </mxGeometry>
        </mxCell>
        <mxCell id="0Csx8JLGuW4_EeDwEvlU-5" value="" style="endArrow=none;dashed=1;html=1;rounded=0;" edge="1" parent="1">
          <mxGeometry width="50" height="50" relative="1" as="geometry">
            <mxPoint x="1310.5" y="520" as="sourcePoint" />
            <mxPoint x="1310" y="240" as="targetPoint" />
          </mxGeometry>
        </mxCell>
        <mxCell id="0Csx8JLGuW4_EeDwEvlU-6" value="" style="endArrow=classic;html=1;rounded=0;fillColor=#dae8fc;strokeColor=#6c8ebf;strokeWidth=4;exitX=0.5;exitY=0.5;exitDx=0;exitDy=0;exitPerimeter=0;" edge="1" parent="1" source="0Csx8JLGuW4_EeDwEvlU-21">
          <mxGeometry width="50" height="50" relative="1" as="geometry">
            <mxPoint x="1025" y="180" as="sourcePoint" />
            <mxPoint x="1315" y="470" as="targetPoint" />
          </mxGeometry>
        </mxCell>
        <mxCell id="0Csx8JLGuW4_EeDwEvlU-7" value="" style="endArrow=classic;html=1;rounded=0;fillColor=#dae8fc;strokeColor=#6c8ebf;strokeWidth=4;exitX=0.475;exitY=0.8;exitDx=0;exitDy=0;exitPerimeter=0;" edge="1" parent="1" source="0Csx8JLGuW4_EeDwEvlU-21">
          <mxGeometry width="50" height="50" relative="1" as="geometry">
            <mxPoint x="990" y="170" as="sourcePoint" />
            <mxPoint x="990" y="470" as="targetPoint" />
          </mxGeometry>
        </mxCell>
        <mxCell id="0Csx8JLGuW4_EeDwEvlU-8" value="" style="endArrow=none;dashed=1;html=1;rounded=0;" edge="1" parent="1">
          <mxGeometry width="50" height="50" relative="1" as="geometry">
            <mxPoint x="1000" y="820" as="sourcePoint" />
            <mxPoint x="1310" y="90" as="targetPoint" />
          </mxGeometry>
        </mxCell>
        <mxCell id="0Csx8JLGuW4_EeDwEvlU-23" value="asymptote" style="edgeLabel;html=1;align=center;verticalAlign=middle;resizable=0;points=[];rotation=-65;fontSize=15;" vertex="1" connectable="0" parent="0Csx8JLGuW4_EeDwEvlU-8">
          <mxGeometry x="0.5247" y="-3" relative="1" as="geometry">
            <mxPoint x="-14" y="-4" as="offset" />
          </mxGeometry>
        </mxCell>
        <mxCell id="0Csx8JLGuW4_EeDwEvlU-10" value="\(\theta\)" style="text;html=1;align=center;verticalAlign=middle;resizable=0;points=[];autosize=1;strokeColor=none;fillColor=none;fontSize=27;fontStyle=0;horizontal=1;" vertex="1" parent="1">
          <mxGeometry x="1080" y="390" width="120" height="50" as="geometry" />
        </mxCell>
        <mxCell id="0Csx8JLGuW4_EeDwEvlU-12" value="" style="endArrow=none;dashed=1;html=1;rounded=0;" edge="1" parent="1">
          <mxGeometry width="50" height="50" relative="1" as="geometry">
            <mxPoint x="1150" y="720" as="sourcePoint" />
            <mxPoint x="1149" y="208" as="targetPoint" />
          </mxGeometry>
        </mxCell>
        <mxCell id="0Csx8JLGuW4_EeDwEvlU-15" value="\(r_1\)" style="text;html=1;align=center;verticalAlign=middle;resizable=0;points=[];autosize=1;strokeColor=none;fillColor=none;fontSize=27;fontStyle=0;horizontal=1;" vertex="1" parent="1">
          <mxGeometry x="935" y="300" width="100" height="50" as="geometry" />
        </mxCell>
        <mxCell id="0Csx8JLGuW4_EeDwEvlU-19" value="" style="endArrow=none;dashed=1;html=1;rounded=0;" edge="1" parent="1">
          <mxGeometry width="50" height="50" relative="1" as="geometry">
            <mxPoint x="990" y="90" as="sourcePoint" />
            <mxPoint x="1280" y="780" as="targetPoint" />
          </mxGeometry>
        </mxCell>
        <mxCell id="0Csx8JLGuW4_EeDwEvlU-24" value="asymptote" style="edgeLabel;html=1;align=center;verticalAlign=middle;resizable=0;points=[];rotation=67.1;fontSize=15;" vertex="1" connectable="0" parent="0Csx8JLGuW4_EeDwEvlU-19">
          <mxGeometry x="-0.3467" y="1" relative="1" as="geometry">
            <mxPoint x="14" y="10" as="offset" />
          </mxGeometry>
        </mxCell>
        <mxCell id="0Csx8JLGuW4_EeDwEvlU-21" value="Sound Source" style="shape=ellipse;fillColor=#0065FF;strokeColor=none;html=1;sketch=0;fontSize=15;" vertex="1" parent="1">
          <mxGeometry x="1010" y="160" width="10" height="10" as="geometry" />
        </mxCell>
        <mxCell id="0Csx8JLGuW4_EeDwEvlU-25" value="Hyperbola" style="text;html=1;align=center;verticalAlign=middle;resizable=0;points=[];autosize=1;strokeColor=none;fillColor=none;strokeWidth=5;fontSize=26;fontStyle=1" vertex="1" parent="1">
          <mxGeometry x="1085" y="120" width="150" height="40" as="geometry" />
        </mxCell>
        <mxCell id="0Csx8JLGuW4_EeDwEvlU-27" value="\(r_2\)" style="text;html=1;align=center;verticalAlign=middle;resizable=0;points=[];autosize=1;strokeColor=none;fillColor=none;fontSize=27;fontStyle=0;horizontal=1;" vertex="1" parent="1">
          <mxGeometry x="1070" y="210" width="100" height="50" as="geometry" />
        </mxCell>
        <mxCell id="0Csx8JLGuW4_EeDwEvlU-28" value="\(r_2-r_1=2a=\Delta t \times v\)" style="text;html=1;align=center;verticalAlign=middle;resizable=0;points=[];autosize=1;strokeColor=none;fillColor=none;fontSize=27;fontStyle=0;horizontal=1;" vertex="1" parent="1">
          <mxGeometry x="1375" y="300" width="390" height="50" as="geometry" />
        </mxCell>
        <mxCell id="0Csx8JLGuW4_EeDwEvlU-30" value="\(\sin \theta = \cfrac{a}{c}=\cfrac{\Delta t \times v}{c}\)" style="text;html=1;align=center;verticalAlign=middle;resizable=0;points=[];autosize=1;strokeColor=none;fillColor=none;fontSize=27;fontStyle=0;horizontal=1;" vertex="1" parent="1">
          <mxGeometry x="1235" y="380" width="650" height="50" as="geometry" />
        </mxCell>
        <mxCell id="0Csx8JLGuW4_EeDwEvlU-32" value="\(c\)" style="text;html=1;align=center;verticalAlign=middle;resizable=0;points=[];autosize=1;strokeColor=none;fillColor=none;fontSize=27;fontStyle=0;horizontal=1;" vertex="1" parent="1">
          <mxGeometry x="1190" y="459.06" width="70" height="50" as="geometry" />
        </mxCell>
        <mxCell id="0Csx8JLGuW4_EeDwEvlU-33" value="\(c\)" style="text;html=1;align=center;verticalAlign=middle;resizable=0;points=[];autosize=1;strokeColor=none;fillColor=none;fontSize=27;fontStyle=0;horizontal=1;" vertex="1" parent="1">
          <mxGeometry x="1040" y="459.06" width="70" height="50" as="geometry" />
        </mxCell>
        <mxCell id="0Csx8JLGuW4_EeDwEvlU-34" value="\(O\)" style="text;html=1;align=center;verticalAlign=middle;resizable=0;points=[];autosize=1;strokeColor=none;fillColor=none;fontSize=18;fontStyle=0;horizontal=1;" vertex="1" parent="1">
          <mxGeometry x="1130" y="464.06" width="60" height="40" as="geometry" />
        </mxCell>
        <mxCell id="0Csx8JLGuW4_EeDwEvlU-37" value="\(\cfrac{x^2}{a^2}-\cfrac{y^2}{b^2}=1\)" style="text;html=1;align=center;verticalAlign=middle;resizable=0;points=[];autosize=1;strokeColor=none;fillColor=none;fontSize=26;" vertex="1" parent="1">
          <mxGeometry x="1315" y="160" width="450" height="40" as="geometry" />
        </mxCell>
        <mxCell id="0Csx8JLGuW4_EeDwEvlU-38" value="\(\theta=\arcsin \cfrac{\Delta t \times v}{c}\)" style="text;html=1;align=center;verticalAlign=middle;resizable=0;points=[];autosize=1;strokeColor=none;fillColor=none;fontSize=27;" vertex="1" parent="1">
          <mxGeometry x="1275" y="464.06" width="530" height="50" as="geometry" />
        </mxCell>
      </root>
    </mxGraphModel>
  </diagram>
</mxfile>
